Coordinates
version=1
nRows=23
nColumns=27
inDegrees=yes

Units are S.I. units (second, meters, Newtons, ...)
If the header above contains a line with 'inDegrees', this indicates whether rotational values are in degrees (yes) or radians (no).

endheader
time	pelvis_rotation	pelvis_tilt	pelvis_list	pelvis_tx	pelvis_ty	pelvis_tz	hip_flexion_r	hip_adduction_r	hip_rotation_r	knee_angle_r	knee_rotation_r	knee_adduction_r	knee_angle_r_beta	ankle_angle_r	subtalar_angle_r	mtp_angle_r	hip_flexion_l	hip_adduction_l	hip_rotation_l	knee_angle_l	knee_rotation_l	knee_adduction_l	knee_angle_l_beta	ankle_angle_l	subtalar_angle_l	mtp_angle_l
      6.13500000	      5.13139299	    -35.06939200	      6.66828799	     -0.08466204	      0.64988509	     -1.15969896	    102.49577976	    -37.52872804	      9.64344388	     77.33515654	      3.26148387	      9.61860505	      1.34975311	      4.24752051	     -9.17236829	      0.00000000	     95.73391595	    -24.75745843	      6.58007882	     69.27560316	      5.48009705	     -9.69118023	      1.20908737	      1.96328690	     -7.43527708	      0.00000000
      6.14000000	      5.35653076	    -35.22281213	      6.63060934	     -0.08424966	      0.64969513	     -1.15989302	    102.57720179	    -37.85636282	      9.70366572	     77.40366070	      3.58567816	      9.79653103	      1.35094873	      4.24875594	     -9.40789629	      0.00000000	     96.03492976	    -24.59639744	      7.02929164	     69.38211581	      5.82385556	     -9.83548534	      1.21094636	      1.89643774	     -7.85619009	      0.00000000
      6.14500000	      5.23283735	    -35.14400516	      6.70626598	     -0.08365055	      0.64998347	     -1.16001860	    102.51907794	    -37.73883398	      9.90986662	     77.37471563	      3.64778605	      9.79641340	      1.35044355	      4.23860491	     -9.45757615	      0.00000000	     95.78806979	    -24.73544402	      6.82448297	     69.36333863	      5.83039139	     -9.83614661	      1.21061864	      1.95448430	     -7.80894992	      0.00000000
      6.15000000	      5.24617985	    -35.08349276	      6.64211802	     -0.08299669	      0.65033850	     -1.16017903	    102.29237159	    -37.81100024	      9.77275373	     77.31468586	      3.65150161	      9.79700051	      1.34939583	      4.26920320	     -9.42990994	      0.00000000	     95.69135017	    -24.71270778	      6.91530894	     69.35271757	      5.87513959	     -9.83633248	      1.21043327	      1.98812410	     -7.84186024	      0.00000000
      6.15500000	      5.23511047	    -34.99876405	      6.67967319	     -0.08231427	      0.65067741	     -1.16035707	    102.15296294	    -37.84269644	      9.82315029	     77.27875623	      3.68708305	      9.79713402	      1.34876874	      4.29277093	     -9.39817587	      0.00000000	     95.49692271	    -24.72554285	      6.83365416	     69.33460071	      5.88602001	     -9.83678314	      1.21011707	      2.04587820	     -7.81160756	      0.00000000
      6.16000000	      5.08191840	    -34.66526693	      6.56931309	     -0.08139313	      0.65155196	     -1.16047105	    101.52973840	    -37.72792450	      9.44024271	     77.09716408	      3.37280142	      9.62103333	      1.34559936	      4.39735799	     -9.03206258	      0.00000000	     94.98673643	    -24.78194795	      6.60428389	     69.22819580	      5.59856118	     -9.69452920	      1.20825995	      2.14888757	     -7.38373797	      0.00000000
      6.16500000	      5.22710893	    -34.88613270	      6.65914065	     -0.08094683	      0.65142275	     -1.16070503	    101.81542879	    -37.92712613	      9.74875592	     77.17399563	      3.72846567	      9.79744685	      1.34694032	      4.33196494	     -9.35923547	      0.00000000	     95.22160381	    -24.73805554	      6.83847023	     69.30012618	      5.96112547	     -9.83698981	      1.20951537	      2.15763043	     -7.79619477	      0.00000000
      6.17000000	      5.20122394	    -34.82720173	      6.67747184	     -0.08025848	      0.65183016	     -1.16089774	    101.67177368	    -37.93569014	      9.79276842	     77.11854782	      3.77635619	      9.79748842	      1.34597257	      4.35464429	     -9.34644044	      0.00000000	     95.05311655	    -24.77429147	      6.77157987	     69.27548319	      5.98850779	     -9.83744557	      1.20908527	      2.18494179	     -7.78630145	      0.00000000
      6.17500000	      5.24116572	    -34.76261209	      6.65905932	     -0.07951598	      0.65228337	     -1.16109179	    101.45609807	    -38.03312113	      9.68944231	     77.05150843	      3.78317081	      9.79775905	      1.34480252	      4.40279108	     -9.30344506	      0.00000000	     94.91303677	    -24.73780443	      6.81391065	     69.24625387	      6.04284657	     -9.83775510	      1.20857512	      2.24092957	     -7.79994300	      0.00000000
      6.18000000	      5.15005244	    -34.73801401	      6.44617963	     -0.07884040	      0.65275828	     -1.16121012	    101.11256662	    -38.00663012	      9.37701084	     76.94202159	      3.76504135	      9.79789765	      1.34289161	      4.42011384	     -9.30789871	      0.00000000	     94.89165239	    -24.82726509	      7.04515935	     69.24738483	      6.14140699	     -9.83795547	      1.20859486	      2.30246372	     -7.79027784	      0.00000000
      6.18500000	      5.39902081	    -34.64770431	      6.59235264	     -0.07800653	      0.65321638	     -1.16150459	    100.98496875	    -38.32368952	      9.36625723	     76.91444261	      3.76493697	      9.79905564	      1.34241027	      4.48557285	     -9.15452470	      0.00000000	     94.69287780	    -24.59095416	      6.98425868	     69.19389909	      6.15800848	     -9.83758988	      1.20766136	      2.36618751	     -7.83008057	      0.00000000
      6.19000000	      5.20842621	    -34.56831220	      6.70248237	     -0.07738965	      0.65356666	     -1.16163232	    100.97381263	    -38.12924392	      9.72239333	     76.87637591	      3.90068647	      9.79748745	      1.34174588	      4.37824684	     -9.35148553	      0.00000000	     94.37241379	    -24.83048513	      6.76601421	     69.14578599	      6.29081009	     -9.83779511	      1.20682163	      2.45115791	     -7.84407843	      0.00000000
      6.19500000	      5.10583891	    -34.29749357	      6.56794139	     -0.07621685	      0.65471071	     -1.16178759	    100.30209203	    -38.09162135	      9.19772557	     76.64977135	      3.55849931	      9.62240720	      1.33779088	      4.60852326	     -8.81968555	      0.00000000	     93.92226161	    -24.85065823	      6.45531941	     69.01917651	      5.87915494	     -9.69650196	      1.20461188	      2.57010532	     -7.29201573	      0.00000000
      6.20000000	      5.35630616	    -34.50679136	      6.67642819	     -0.07575573	      0.65461094	     -1.16204300	    100.55689016	    -38.40943956	      9.48041954	     76.72451233	      3.93318566	      9.79869851	      1.33909536	      4.60080936	     -9.08893283	      0.00000000	     94.16357135	    -24.71463386	      6.78169226	     69.07757007	      6.30426484	     -9.83796047	      1.20563104	      2.56388192	     -7.71834284	      0.00000000
      6.20500000	      5.13458545	    -34.57453973	      6.19682706	     -0.07505979	      0.65517441	     -1.16208001	    100.05578925	    -38.26780351	      8.83629560	     76.55587906	      3.88683314	      9.79884015	      1.33615215	      4.61343504	     -9.10898718	      0.00000000	     94.36096265	    -24.95405863	      7.29374603	     69.13318383	      6.46619261	     -9.83819778	      1.20660168	      2.65455823	     -7.64585655	      0.00000000
      6.21000000	      5.15922409	    -34.14919503	      6.62301795	     -0.07390511	      0.65621600	     -1.16235017	     99.79416671	    -38.29641936	      9.15829376	     76.43843337	      3.68403631	      9.62474566	      1.33410234	      4.69111853	     -8.71158672	      0.00000000	     93.41820143	    -24.87250982	      6.35188578	     68.88931521	      6.04491063	     -9.69700458	      1.20234537	      2.78029467	     -7.22555977	      0.00000000
      6.21500000	      5.42817471	    -34.38360857	      6.50008624	     -0.07343727	      0.65619280	     -1.16256110	     99.80882843	    -38.67272004	      9.04867846	     76.46168087	      4.01420369	      9.79987197	      1.33450808	      4.71900406	     -8.94496831	      0.00000000	     93.83841676	    -24.70347494	      7.01612639	     68.97606749	      6.51678026	     -9.83872893	      1.20385948	      2.75121200	     -7.69373522	      0.00000000
      6.22000000	      5.33032069	    -34.36729337	      6.49210714	     -0.07268738	      0.65658490	     -1.16268679	     99.70420133	    -38.60451963	      9.10347360	     76.41325408	      4.06675278	      9.80003949	      1.33366288	      4.74279494	     -8.94267695	      0.00000000	     93.70534823	    -24.85366326	      6.94650487	     68.97152948	      6.58259310	     -9.83881238	      1.20378028	      2.81482545	     -7.58122078	      0.00000000
      6.22500000	      5.35410638	    -34.35180567	      6.55945640	     -0.07188927	      0.65706989	     -1.16288915	     99.61691328	    -38.67766352	      9.19091727	     76.34979426	      4.15483732	      9.79996106	      1.33255529	      4.77893358	     -8.90736086	      0.00000000	     93.54163914	    -24.86821505	      6.83397608	     68.92583921	      6.61419910	     -9.83923450	      1.20298283	      2.93608452	     -7.52642213	      0.00000000
      6.23000000	      5.37080335	    -34.27766707	      6.63020981	     -0.07107172	      0.65757797	     -1.16312132	     99.46965869	    -38.74988612	      9.25666326	     76.28427458	      4.21455839	      9.80048227	      1.33141176	      4.79839807	     -8.89764632	      0.00000000	     93.30829525	    -24.87270250	      6.69976478	     68.87334627	      6.63662984	     -9.83910065	      1.20206666	      2.98924598	     -7.51115777	      0.00000000
      6.23500000	      5.31253833	    -34.23046630	      6.65678044	     -0.07030206	      0.65803422	     -1.16331608	     99.33748605	    -38.73769363	      9.37175116	     76.21884569	      4.32370384	      9.80090872	      1.33026981	      4.82743565	     -8.90045520	      0.00000000	     93.11675839	    -24.95701449	      6.57638883	     68.83934089	      6.66278820	     -9.83981881	      1.20147315	      3.03812845	     -7.46732023	      0.00000000
      6.24000000	      5.36978559	    -34.17641769	      6.59684040	     -0.06943931	      0.65846307	     -1.16351851	     99.08100016	    -38.87580865	      9.16046012	     76.15507864	      4.30365438	      9.80176070	      1.32915686	      4.87657206	     -8.79267109	      0.00000000	     93.01958087	    -24.92802307	      6.67950542	     68.83137964	      6.73112899	     -9.84024537	      1.20133420	      3.15757936	     -7.41920581	      0.00000000
      6.24500000	      5.13086582	    -33.84202830	      6.57746624	     -0.06827702	      0.65946848	     -1.16370172	     98.53386672	    -38.68032042	      8.96416865	     75.95875408	      4.03414735	      9.62827089	      1.32573035	      4.95527388	     -8.42453277	      0.00000000	     92.38137902	    -25.09482401	      6.14272451	     68.70117734	      6.34148020	     -9.70104453	      1.19906174	      3.31084568	     -6.87700825	      0.00000000
